<svg width="160" height="29" viewBox="0 0 160 29" fill="none" xmlns="http://www.w3.org/2000/svg">
<g clip-path="url(#clip0_6_262)">
<path d="M0.764655 21.322C0.748316 20.9864 0.752401 20.6466 0.776909 20.3025C0.801418 19.9585 0.817763 19.5977 0.825932 19.22L0.544067 4.73263C0.544067 4.17041 0.638023 3.74246 0.825932 3.44877C1.02201 3.14669 1.2957 2.99565 1.64701 2.99565C1.96563 2.99565 2.21482 3.00404 2.39456 3.02082C2.57429 3.0376 2.73361 3.05438 2.8725 3.07116C2.9542 3.08795 3.0359 3.09634 3.1176 3.09634C3.1993 3.09634 3.28508 3.09634 3.37495 3.09634H10.1397C10.8259 3.09634 11.3079 3.19284 11.5857 3.38584C11.8717 3.57884 12.0146 3.88931 12.0146 4.31726C12.0146 4.61095 11.9738 4.8501 11.8921 5.03471C11.8186 5.21932 11.7042 5.36616 11.5489 5.47524C11.3938 5.58433 11.1977 5.65985 10.9608 5.70181C10.732 5.73537 10.4624 5.75216 10.1519 5.75216L3.39946 5.73957L3.47299 10.5225C4.37985 10.5225 5.18867 10.5225 5.89946 10.5225C6.61843 10.5142 7.25567 10.5058 7.81121 10.4974C8.37498 10.489 8.86514 10.4806 9.28183 10.4722C9.70668 10.4555 10.0784 10.4428 10.397 10.4344C10.4787 10.4344 10.5563 10.4344 10.6298 10.4344C10.7034 10.4261 10.7728 10.4219 10.8382 10.4219C10.9771 10.4135 11.1159 10.4092 11.2549 10.4092C11.4019 10.4092 11.5204 10.4092 11.6102 10.4092C11.8309 10.4092 12.0269 10.4555 12.1985 10.5477C12.37 10.6316 12.513 10.7449 12.6274 10.8876C12.7499 11.0219 12.8398 11.1728 12.897 11.3407C12.9624 11.5002 12.995 11.6512 12.995 11.7938C12.995 12.2386 12.848 12.57 12.5539 12.7882C12.2598 12.998 11.888 13.1028 11.4387 13.1028L3.47299 13.1155V19.4466C3.47299 19.6144 3.48525 19.7822 3.50975 19.9501C3.54243 20.1095 3.57511 20.2731 3.60779 20.441C3.64864 20.6004 3.68541 20.764 3.71809 20.9319C3.75076 21.0997 3.76711 21.2717 3.76711 21.4479C3.76711 21.6661 3.74259 21.8675 3.69358 22.0521C3.64456 22.2283 3.55469 22.3835 3.42397 22.5178C3.30142 22.6436 3.13394 22.7402 2.92152 22.8073C2.7091 22.8828 2.43949 22.9206 2.1127 22.9206C1.67152 22.9206 1.33655 22.7947 1.10779 22.543C0.879033 22.2828 0.764655 21.8758 0.764655 21.322ZM16.8921 21.4353C16.8921 21.1416 16.8962 20.848 16.9044 20.5542C16.9125 20.2605 16.9207 19.9375 16.9289 19.585V9.88061C16.9289 9.64564 16.9044 9.41075 16.8554 9.17578C16.8064 8.93244 16.7818 8.68072 16.7818 8.42056C16.7818 7.97582 16.937 7.63601 17.2475 7.40104C17.558 7.16608 17.9787 7.0486 18.5098 7.0486C18.7385 7.0486 18.9387 7.09055 19.1102 7.17446C19.2818 7.24999 19.4248 7.35065 19.5392 7.47657C19.6535 7.60243 19.7393 7.74505 19.7965 7.90448C19.8537 8.06392 19.8823 8.22754 19.8823 8.39536C19.8823 8.53804 19.8701 8.68491 19.8455 8.8359C19.8292 8.97858 19.8088 9.1212 19.7842 9.26388C21.0342 8.945 22.0963 8.65552 22.9706 8.39536C23.8529 8.13526 24.5433 7.9213 25.0416 7.75343C25.1478 7.56048 25.2949 7.39686 25.4828 7.26255C25.6789 7.11994 25.9321 7.0486 26.2426 7.0486C26.692 7.0486 27.0474 7.17027 27.3088 7.41361C27.5784 7.64858 27.7132 7.94644 27.7132 8.30726C27.7132 8.44994 27.705 8.59675 27.6887 8.7478C27.6724 8.89886 27.6641 9.04992 27.6641 9.20091C27.6151 9.7128 27.6029 10.2331 27.6274 10.7617C27.6601 11.2903 27.6968 11.8232 27.7377 12.3602C27.7541 12.5281 27.7622 12.7085 27.7622 12.9014C27.7704 13.0861 27.7744 13.2749 27.7744 13.4678C27.7744 13.6692 27.7254 13.8371 27.6274 13.9713C27.5294 14.1056 27.4027 14.2147 27.2475 14.2986C27.1004 14.3741 26.937 14.4286 26.7573 14.4622C26.5776 14.4958 26.4019 14.5126 26.2304 14.5126C25.9853 14.5126 25.781 14.4706 25.6176 14.3867C25.4542 14.2944 25.3194 14.1811 25.2132 14.0469C25.1151 13.9042 25.0416 13.749 24.9926 13.5811C24.9517 13.4049 24.9313 13.2329 24.9313 13.0651C24.9313 12.6791 24.9354 12.2889 24.9436 11.8945C24.9517 11.4917 24.9599 11.0512 24.9681 10.5729C24.6576 10.6484 24.2287 10.7491 23.6813 10.875C23.1421 11.0008 22.5498 11.1351 21.9044 11.2778C21.5367 11.37 21.1732 11.4581 20.8137 11.5421C20.4542 11.6176 20.0906 11.6973 19.723 11.7812V20.0004L20.0906 19.8872C20.254 19.8284 20.4092 19.778 20.5563 19.7361C20.7034 19.6858 20.8709 19.6522 21.0588 19.6354C21.214 19.6522 21.3652 19.69 21.5122 19.7487C21.6675 19.8074 21.8022 19.8913 21.9166 20.0004C22.0392 20.1095 22.1372 20.248 22.2107 20.4158C22.2842 20.5752 22.321 20.7598 22.321 20.9696C22.321 21.1626 22.2883 21.3472 22.223 21.5234C22.1658 21.6997 22.0841 21.8591 21.9779 22.0017C21.8717 22.136 21.745 22.2492 21.598 22.3416C21.4591 22.4255 21.3039 22.4716 21.1323 22.48C21.0179 22.4968 20.8627 22.522 20.6666 22.5555C20.4705 22.5975 20.2418 22.6436 19.9804 22.694C19.5637 22.7779 19.2246 22.8366 18.9632 22.8702C18.7099 22.9038 18.4975 22.9206 18.3259 22.9206C18.1381 22.9206 17.9542 22.887 17.7744 22.8199C17.6029 22.7611 17.4517 22.6688 17.321 22.543C17.1903 22.4171 17.0841 22.2619 17.0024 22.0772C16.9289 21.8927 16.8921 21.6786 16.8921 21.4353ZM33.9877 16.8789C34.1429 17.5083 34.3717 18.0369 34.674 18.4648C34.9844 18.8844 35.3317 19.2242 35.7157 19.4844C36.0997 19.7445 36.504 19.9333 36.9289 20.0508C37.3619 20.1599 37.7826 20.2144 38.1911 20.2144C38.8284 20.2144 39.3962 20.1599 39.8945 20.0508C40.3929 19.9333 40.8178 19.7948 41.1691 19.6354C41.5285 19.4676 41.8186 19.2956 42.0392 19.1194C42.2598 18.9431 42.415 18.7879 42.5049 18.6536C42.5866 18.5278 42.6764 18.4103 42.7745 18.3012C42.8806 18.1837 42.991 18.083 43.1053 17.9991C43.2279 17.9068 43.3463 17.8355 43.4607 17.7852C43.5833 17.7348 43.6976 17.7096 43.8039 17.7096C44.2123 17.7096 44.5269 17.8355 44.7475 18.0872C44.9763 18.3306 45.0906 18.662 45.0906 19.0816C45.0906 19.241 45.0334 19.4424 44.919 19.6858C44.8047 19.9291 44.5923 20.1976 44.2818 20.4913C43.9387 20.8186 43.5547 21.1291 43.1299 21.4227C42.7132 21.7164 42.2516 21.9766 41.745 22.2031C41.2385 22.4213 40.6871 22.5933 40.0906 22.7192C39.5024 22.8534 38.8651 22.9206 38.1789 22.9206C37.3701 22.9206 36.6307 22.8073 35.9607 22.5807C35.2908 22.3625 34.6903 22.0647 34.1593 21.687C33.6282 21.3011 33.1666 20.8563 32.7745 20.3528C32.3823 19.8494 32.0555 19.3123 31.7941 18.7417C31.5326 18.1711 31.3365 17.5838 31.2059 16.9796C31.0751 16.3754 31.0098 15.788 31.0098 15.2174C31.0098 13.9755 31.2059 12.8553 31.598 11.8567C31.9902 10.8498 32.5294 9.98971 33.2156 9.27644C33.9019 8.56324 34.7148 8.01359 35.6544 7.62757C36.5939 7.24161 37.6111 7.0486 38.7058 7.0486C39.4901 7.0486 40.2255 7.17027 40.9117 7.41361C41.598 7.64858 42.2066 7.9842 42.7377 8.42056C43.2769 8.84853 43.7263 9.36454 44.0857 9.96877C44.4534 10.5645 44.7107 11.2232 44.8578 11.9449C45.0212 12.0875 45.1397 12.2763 45.2132 12.5113C45.2949 12.7378 45.3357 12.9644 45.3357 13.191C45.3357 13.5686 45.2091 13.8791 44.9558 14.1224C44.7107 14.3573 44.4003 14.521 44.0245 14.6133C43.1993 14.8314 42.3742 15.0328 41.549 15.2174C40.7238 15.402 39.8945 15.5825 39.0612 15.7587C38.2279 15.9349 37.3864 16.1153 36.5367 16.2999C35.6952 16.4845 34.8456 16.6775 33.9877 16.8789ZM33.7793 14.5503C35.1683 14.2147 36.5735 13.9 37.9951 13.6063C39.4166 13.3127 40.8627 12.9853 42.3333 12.6245C42.1944 12.2386 42.0065 11.8736 41.7696 11.5295C41.5326 11.1771 41.2549 10.8708 40.9362 10.6106C40.6176 10.3505 40.2622 10.145 39.8701 9.9939C39.4861 9.84284 39.0694 9.76732 38.6201 9.76732C37.9256 9.76732 37.2924 9.8848 36.7205 10.1198C36.1568 10.3463 35.6666 10.6694 35.25 11.0889C34.8333 11.5002 34.4983 12.0036 34.245 12.5994C33.9918 13.1867 33.8366 13.8371 33.7793 14.5503ZM48.2891 19.2956C48.2891 19.1025 48.3341 18.9264 48.424 18.7669C48.5138 18.6075 48.6241 18.4732 48.7548 18.3641C48.8938 18.2467 49.0449 18.1586 49.2083 18.0998C49.3717 18.0327 49.531 17.9991 49.6862 17.9991C49.8741 17.9991 50.0335 18.0201 50.1642 18.062C50.2949 18.104 50.4092 18.1628 50.5073 18.2383C50.6053 18.3138 50.6912 18.4019 50.7646 18.5026C50.8382 18.6033 50.9158 18.7124 50.9975 18.8299C51.3243 19.3333 51.8022 19.7235 52.4313 20.0004C53.0604 20.2689 53.8815 20.4032 54.8946 20.4032C55.3112 20.4032 55.7034 20.3655 56.071 20.2899C56.4468 20.2144 56.7737 20.1011 57.0514 19.9501C57.3374 19.7991 57.5621 19.6144 57.7254 19.3963C57.897 19.1781 57.9828 18.9264 57.9828 18.6411C57.9828 18.255 57.8725 17.9278 57.6519 17.6592C57.4395 17.3908 57.1535 17.16 56.7941 16.967C56.4427 16.774 56.0424 16.6103 55.5931 16.4761C55.1437 16.3419 54.6821 16.2118 54.2083 16.0859C53.7753 15.9769 53.3382 15.8594 52.897 15.7335C52.4559 15.5992 52.0269 15.4482 51.6102 15.2803C51.1936 15.1042 50.8014 14.8986 50.4338 14.6636C50.0743 14.4203 49.7598 14.135 49.4901 13.8077C49.2205 13.4805 49.0041 13.1028 48.8406 12.6749C48.6854 12.2386 48.6078 11.7393 48.6078 11.1771C48.6078 10.4219 48.7794 9.78414 49.1225 9.26388C49.4738 8.73524 49.9231 8.30726 50.4705 7.98001C51.0261 7.65276 51.6429 7.4178 52.321 7.27518C52.9991 7.12413 53.665 7.0486 54.3186 7.0486C54.6944 7.0486 55.0375 7.06961 55.348 7.11156C55.6584 7.15351 55.9485 7.20803 56.2181 7.27518C56.4877 7.34227 56.7451 7.42618 56.9901 7.5269C57.2353 7.61919 57.4804 7.71573 57.7254 7.81639C57.7581 7.69053 57.8071 7.56467 57.8725 7.43881C57.9461 7.30451 58.0318 7.18703 58.1298 7.08636C58.2279 6.97726 58.3423 6.88916 58.473 6.82201C58.6037 6.75492 58.7508 6.72135 58.9142 6.72135C59.3145 6.72135 59.6249 6.80107 59.8455 6.9605C60.0661 7.11994 60.1764 7.40104 60.1764 7.80382C60.1764 8.12269 60.1642 8.45413 60.1397 8.79813C60.1152 9.1422 60.1029 9.51978 60.1029 9.931C60.1438 10.0317 60.1723 10.145 60.1887 10.2708C60.205 10.3883 60.2132 10.4932 60.2132 10.5855C60.2132 10.7869 60.1805 10.9589 60.1152 11.1016C60.0498 11.2358 59.9599 11.3491 59.8455 11.4414C59.7312 11.5253 59.5964 11.5883 59.4411 11.6302C59.2941 11.6722 59.1307 11.6931 58.9509 11.6931C58.7875 11.6931 58.6282 11.6638 58.473 11.605C58.3259 11.5463 58.1911 11.4708 58.0686 11.3784C57.9461 11.2778 57.8398 11.1645 57.75 11.0386C57.6601 10.9128 57.5907 10.7827 57.5416 10.6484C57.4109 10.5394 57.2434 10.4177 57.0391 10.2834C56.8431 10.1408 56.6061 10.0107 56.3284 9.89324C56.0588 9.77576 55.7483 9.67922 55.397 9.60369C55.0457 9.51978 54.6576 9.47783 54.2328 9.47783C53.8161 9.47783 53.428 9.51978 53.0686 9.60369C52.7173 9.67922 52.4109 9.79251 52.1495 9.94357C51.8962 10.0946 51.696 10.275 51.5489 10.4848C51.4019 10.6946 51.3284 10.9295 51.3284 11.1897C51.3284 11.5253 51.4264 11.8148 51.6225 12.0581C51.8268 12.2931 52.0963 12.5029 52.4313 12.6875C52.7663 12.8637 53.1543 13.0231 53.5956 13.1658C54.0449 13.3084 54.5106 13.4469 54.9926 13.5811C55.6544 13.7658 56.3202 13.9713 56.9901 14.1979C57.6683 14.4245 58.2769 14.7181 58.8161 15.079C59.3635 15.4314 59.8088 15.8803 60.1519 16.4258C60.4951 16.9628 60.6666 17.6383 60.6666 18.4522C60.6666 19.0816 60.5727 19.627 60.3848 20.0885C60.1968 20.55 59.9477 20.9486 59.6372 21.2842C59.3268 21.6116 58.9632 21.8842 58.5465 22.1024C58.1381 22.3122 57.7091 22.4758 57.2597 22.5933C56.8186 22.7192 56.3692 22.8031 55.9117 22.845C55.4542 22.8954 55.0212 22.9206 54.6127 22.9206C54.0408 22.9206 53.4893 22.866 52.9583 22.7569C52.4272 22.6478 51.9248 22.501 51.4509 22.3164C50.9852 22.1318 50.5563 21.9178 50.1642 21.6745C49.7802 21.4311 49.4493 21.1752 49.1715 20.9067C48.8938 20.6381 48.6772 20.3655 48.522 20.0885C48.3668 19.8116 48.2891 19.5473 48.2891 19.2956ZM64.6249 21.6493C64.6249 21.4983 64.6293 21.343 64.6374 21.1836C64.6538 21.0241 64.6701 20.8647 64.6864 20.7053C64.7109 20.4871 64.7353 20.2438 64.7598 19.9752C64.7843 19.7067 64.7968 19.4088 64.7968 19.0816C64.7968 18.5865 64.7924 17.9488 64.7843 17.1684C64.7843 16.388 64.7799 15.5237 64.7717 14.5755C64.7636 13.6189 64.7554 12.6161 64.7472 11.5672C64.7391 10.51 64.7272 9.46108 64.7109 8.42056C64.7027 7.37166 64.6901 6.36471 64.6738 5.39973C64.6657 4.43474 64.6575 3.56625 64.6494 2.79426C64.527 2.77748 64.3965 2.78587 64.2572 2.81943C64.1185 2.8446 63.9548 2.85719 63.7672 2.85719C63.6203 2.85719 63.4691 2.83202 63.3135 2.78167C63.1667 2.73132 63.028 2.6558 62.8969 2.55511C62.7745 2.44602 62.6723 2.30337 62.5906 2.12716C62.5171 1.95094 62.4803 1.73696 62.4803 1.48523C62.4803 1.04049 62.5947 0.704848 62.8235 0.478286C63.0525 0.243332 63.3261 0.125854 63.6448 0.125854C63.7753 0.125854 63.9021 0.142637 64.0244 0.176202C64.1468 0.209767 64.2779 0.226549 64.4166 0.226549C64.5797 0.226549 64.7472 0.222354 64.9192 0.213962C65.0905 0.205571 65.258 0.192984 65.4218 0.176202C65.6012 0.15942 65.7769 0.146833 65.9482 0.138442C66.1283 0.13005 66.2832 0.125854 66.4144 0.125854C66.7576 0.125854 67.0349 0.243332 67.2476 0.478286C67.4679 0.704848 67.5783 1.01952 67.5783 1.42229C67.5783 2.50476 67.5664 3.60821 67.5419 4.73263C67.525 5.84866 67.5087 7.05279 67.4923 8.34503L67.4679 8.98696C67.754 8.72686 68.0683 8.47933 68.4116 8.24436C68.7548 8.0094 69.1187 7.80382 69.5027 7.62757C69.8949 7.45138 70.2989 7.31295 70.7156 7.21222C71.1322 7.10312 71.557 7.0486 71.9899 7.0486C73.0196 7.0486 73.9344 7.20384 74.735 7.51434C75.5438 7.82477 76.2265 8.29888 76.7818 8.93663C77.3377 9.57437 77.7581 10.3757 78.0442 11.3407C78.3385 12.3057 78.4853 13.4469 78.4853 14.7643C78.4853 15.1503 78.4564 15.5531 78.3993 15.9727C78.3504 16.3922 78.277 16.8117 78.1791 17.2313C78.0806 17.6509 77.9626 18.0663 77.8233 18.4774C77.6847 18.8802 77.5291 19.2578 77.3578 19.6102C77.5378 19.5431 77.7173 19.4844 77.8967 19.434C78.0768 19.3753 78.2726 19.3459 78.4853 19.3459C78.7551 19.3459 78.9753 19.4005 79.1472 19.5095C79.3185 19.6102 79.4491 19.7319 79.5394 19.8745C79.6373 20.0172 79.7025 20.1641 79.7352 20.3151C79.7678 20.4661 79.7841 20.5836 79.7841 20.6675C79.7841 20.9864 79.6906 21.2591 79.5024 21.4856C79.3229 21.7122 79.0895 21.8758 78.804 21.9766C78.5669 22.0689 78.2688 22.1695 77.9093 22.2786C77.5498 22.3877 77.1865 22.4884 76.8188 22.5807C76.4593 22.673 76.1198 22.7527 75.8017 22.8199C75.4829 22.887 75.242 22.9206 75.0782 22.9206C74.5474 22.9206 74.1672 22.7905 73.9388 22.5303C73.7179 22.2619 73.6075 21.9178 73.6075 21.4983C73.6075 21.2717 73.669 21.0241 73.7913 20.7556C73.9143 20.4871 74.0611 20.2395 74.233 20.013C74.4451 19.7025 74.6415 19.3459 74.821 18.9431C75.0011 18.532 75.156 18.0998 75.2865 17.6467C75.4258 17.1852 75.5319 16.7111 75.6053 16.2244C75.6869 15.7293 75.7276 15.2426 75.7276 14.7643C75.7276 13.9755 75.6542 13.2706 75.5074 12.6497C75.3681 12.0288 75.1435 11.5044 74.8335 11.0764C74.5229 10.6484 74.1182 10.3253 73.62 10.1072C73.13 9.88061 72.5333 9.76732 71.8305 9.76732C71.4221 9.76732 71.0136 9.84284 70.6051 9.9939C70.1967 10.145 69.8007 10.3463 69.4167 10.5981C69.0327 10.8414 68.6688 11.1267 68.3262 11.454C67.9912 11.7728 67.6925 12.1001 67.4315 12.4358C67.4152 13.6861 67.4026 14.9322 67.3945 16.1741C67.3945 17.4075 67.4026 18.6704 67.4189 19.9627C67.4352 19.9627 67.456 19.9585 67.4804 19.9501C67.5131 19.9417 67.5827 19.9165 67.6887 19.8745C67.7621 19.841 67.84 19.8116 67.9215 19.7864C68.0112 19.7613 68.1091 19.7445 68.2158 19.7361C68.6569 19.7193 68.992 19.8284 69.2203 20.0633C69.4575 20.2899 69.5761 20.6172 69.5761 21.0451C69.5761 21.1961 69.5472 21.3472 69.4902 21.4983C69.4412 21.6409 69.3716 21.771 69.2818 21.8884C69.1921 22.0059 69.0854 22.1066 68.9631 22.1905C68.8407 22.2744 68.7058 22.3331 68.559 22.3667C68.3952 22.4003 68.2321 22.4381 68.0683 22.48C67.9134 22.5136 67.754 22.5472 67.5909 22.5807C67.4434 22.6143 67.284 22.652 67.1127 22.694C66.9496 22.7359 66.7858 22.7737 66.6227 22.8073C66.4671 22.8408 66.324 22.866 66.1935 22.8828C66.063 22.908 65.9563 22.9206 65.8748 22.9206C65.3929 22.9206 65.0622 22.8115 64.8821 22.5933C64.7109 22.3752 64.6249 22.0605 64.6249 21.6493ZM83.7302 25.3498C83.7302 25.2155 83.7546 25.0645 83.8036 24.8967C83.8613 24.7289 83.9466 24.5694 84.0614 24.4184C84.1838 24.2758 84.3388 24.1541 84.527 24.0534C84.7146 23.9527 84.9436 23.9023 85.2134 23.9023C85.3358 23.9023 85.4544 23.9275 85.5686 23.9778C85.6828 24.0366 85.7894 24.1079 85.8873 24.1919C85.9852 24.2841 86.0749 24.3806 86.1565 24.4813C86.2469 24.582 86.3284 24.6743 86.4018 24.7583C86.6472 25.0687 86.9 25.3163 87.1617 25.5008C87.4233 25.6855 87.6925 25.8239 87.9705 25.9162C88.2566 26.0169 88.5546 26.0799 88.8652 26.105C89.1758 26.1386 89.5027 26.1553 89.8453 26.1553C90.4746 26.1553 91.0544 26.0799 91.5858 25.9288C92.1248 25.7861 92.5904 25.5344 92.9825 25.1736C93.3747 24.8212 93.6853 24.3428 93.9143 23.7387C94.1508 23.143 94.282 22.3961 94.3065 21.4983C94.3065 21.4814 94.3021 21.4647 94.2939 21.4479C94.2939 21.4311 94.2939 21.4144 94.2939 21.3975C94.0737 21.6157 93.8202 21.8171 93.5341 22.0017C93.2567 22.1863 92.9417 22.3458 92.5904 22.48C92.2478 22.6143 91.8676 22.7192 91.4509 22.7947C91.0343 22.8786 90.5769 22.9206 90.0781 22.9206C89.1061 22.9206 88.1788 22.7863 87.2966 22.5178C86.4144 22.2492 85.6382 21.8087 84.9681 21.1961C84.298 20.5836 83.7628 19.7906 83.3625 18.8172C82.9703 17.8355 82.7745 16.6314 82.7745 15.2049C82.7745 14.9195 82.799 14.5965 82.848 14.2356C82.8969 13.8664 82.9703 13.4805 83.0688 13.0777C83.1667 12.6749 83.2891 12.268 83.4365 11.8567C83.5915 11.4456 83.7753 11.0512 83.9874 10.6736C83.9466 10.682 83.9058 10.6862 83.8651 10.6862C83.8324 10.6862 83.7954 10.6862 83.7546 10.6862C83.567 10.6862 83.3913 10.6484 83.2282 10.5729C83.0726 10.4974 82.9339 10.4009 82.8109 10.2834C82.6967 10.1659 82.607 10.0359 82.5418 9.89324C82.4765 9.75056 82.4439 9.61213 82.4439 9.47783C82.4439 9.25969 82.4765 9.06668 82.5418 8.89886C82.607 8.72267 82.7174 8.56742 82.8724 8.43312C83.0362 8.29051 83.2483 8.16884 83.5099 8.06811C83.7709 7.95907 84.0978 7.86253 84.49 7.77862C84.8006 7.71147 85.0905 7.6402 85.3603 7.56467C85.6382 7.48076 85.8792 7.40523 86.0831 7.33808C86.3529 7.25418 86.5901 7.18702 86.794 7.13669C87.0067 7.07798 87.2188 7.0486 87.4315 7.0486C87.7747 7.0486 88.0646 7.16608 88.3011 7.40104C88.5465 7.62757 88.6688 7.93387 88.6688 8.31989C88.6688 8.51284 88.6324 8.71842 88.559 8.93663C88.4931 9.14639 88.3463 9.33522 88.1179 9.50303C87.8889 9.59531 87.6643 9.75056 87.4434 9.96877C87.2232 10.1869 87.0149 10.447 86.8185 10.7491C86.6227 11.0512 86.4426 11.3827 86.2795 11.7435C86.1157 12.1043 85.9733 12.4777 85.8503 12.8637C85.7361 13.2413 85.6464 13.6231 85.5811 14.0091C85.5153 14.3951 85.4826 14.7601 85.4826 15.1042C85.4826 16.0608 85.6056 16.8705 85.8503 17.5334C86.1038 18.188 86.4389 18.7208 86.8555 19.1319C87.2721 19.5347 87.754 19.8242 88.3011 20.0004C88.8489 20.1766 89.4249 20.2647 90.0291 20.2647C91.0914 20.2647 91.9617 20.0969 92.64 19.7613C93.3258 19.4172 93.8691 18.897 94.2694 18.2005V17.911V10.2583C94.1471 10.3002 94.0166 10.3422 93.8773 10.3841C93.7386 10.4261 93.5993 10.4638 93.4607 10.4974C93.3302 10.5309 93.2072 10.5603 93.093 10.5855C92.9788 10.6023 92.8847 10.6106 92.8112 10.6106C92.64 10.6106 92.468 10.5897 92.2967 10.5477C92.133 10.5058 91.9818 10.4386 91.8431 10.3463C91.7126 10.2456 91.6022 10.1156 91.5124 9.95614C91.4302 9.7967 91.3894 9.59531 91.3894 9.35197C91.3894 8.94919 91.4917 8.62613 91.6963 8.38279C91.9002 8.13107 92.2309 7.96745 92.6889 7.89192L94.5882 7.33808L94.5756 7.35065C94.7476 7.25837 94.9433 7.18702 95.1642 7.13669C95.385 7.07798 95.5564 7.0486 95.6787 7.0486C95.7691 7.0486 95.887 7.05698 96.0345 7.0738C96.1894 7.09055 96.3363 7.14507 96.4756 7.23742C96.6224 7.32133 96.7491 7.46394 96.8552 7.66533C96.9618 7.86672 97.0145 8.14783 97.0145 8.50865C97.0145 8.60938 97.0108 8.71004 97.0026 8.81077C96.9945 8.91143 96.9819 8.99953 96.9656 9.07505C96.9656 9.07505 96.9656 9.09187 96.9656 9.12545C96.9656 9.15896 96.9618 9.27225 96.9537 9.46526C96.9537 9.65828 96.9537 9.96033 96.9537 10.3715C96.9537 10.7827 96.9493 11.3659 96.9411 12.1211C96.9411 12.8763 96.9367 13.8371 96.9286 15.0034C96.9204 16.1614 96.9123 17.588 96.9041 19.283C96.9041 19.6522 96.9167 20.0256 96.9411 20.4032C96.9656 20.7724 96.9781 21.1878 96.9781 21.6493C96.9781 23.0506 96.7981 24.2128 96.4385 25.1358C96.0872 26.0672 95.589 26.8057 94.9433 27.3511C94.3065 27.8966 93.5422 28.2783 92.6519 28.4965C91.7615 28.7231 90.7852 28.8364 89.7229 28.8364C88.9549 28.8364 88.2114 28.7483 87.4923 28.572C86.7739 28.4042 86.132 28.165 85.5686 27.8546C85.0133 27.5441 84.5678 27.1749 84.2327 26.7469C83.8977 26.319 83.7302 25.8533 83.7302 25.3498Z" fill="#FF4444"/>
<path d="M110.936 21.6116C110.904 21.385 110.908 21.1458 110.948 20.8941C110.997 20.6339 111.042 20.4032 111.083 20.2018C111.1 19.3208 111.108 18.4271 111.108 17.5208C111.116 16.6062 111.116 15.6119 111.108 14.5378C111.1 13.4637 111.091 12.2763 111.083 10.9757C111.075 9.67504 111.071 8.19397 111.071 6.53253L110.924 4.83333C110.924 4.48089 110.94 4.1914 110.973 3.96483C111.005 3.73827 111.071 3.55786 111.169 3.4236C111.275 3.28935 111.418 3.19704 111.598 3.14669C111.786 3.09635 112.027 3.07117 112.321 3.07117C112.73 3.07117 113.134 3.06697 113.534 3.05858C113.934 3.0418 114.339 3.02502 114.748 3.00824C115.164 2.99146 115.573 2.97048 115.973 2.9453C116.381 2.91174 116.802 2.89496 117.235 2.89496C117.521 2.89496 117.877 2.90335 118.301 2.92013C118.734 2.93691 119.184 2.99985 119.649 3.10893C120.124 3.20963 120.593 3.36906 121.059 3.58723C121.533 3.8054 121.953 4.11588 122.321 4.51866C122.697 4.92143 122.999 5.4333 123.228 6.05424C123.465 6.66683 123.583 7.42199 123.583 8.3199C123.583 9.09188 123.428 9.8009 123.118 10.447C122.807 11.0931 122.411 11.6553 121.929 12.1337C122.133 12.2176 122.329 12.3141 122.517 12.4231C122.705 12.5322 122.872 12.6455 123.019 12.763C123.175 12.8721 123.305 12.9812 123.412 13.0903C123.526 13.191 123.612 13.2749 123.669 13.342C124.021 13.7867 124.306 14.2902 124.527 14.8524C124.755 15.4062 124.87 15.9559 124.87 16.5013C124.87 17.4411 124.772 18.2509 124.576 18.9305C124.388 19.6019 124.119 20.1725 123.767 20.6423C123.416 21.1039 122.991 21.4773 122.493 21.7626C121.994 22.0479 121.434 22.2703 120.814 22.4297C120.201 22.5807 119.531 22.6814 118.804 22.7317C118.085 22.7821 117.329 22.8073 116.536 22.8073C116.398 22.8073 116.202 22.7989 115.949 22.7821C115.695 22.7653 115.418 22.7402 115.115 22.7066C114.813 22.6814 114.502 22.6478 114.183 22.6059C113.865 22.5639 113.571 22.5178 113.301 22.4675C113.097 22.5597 112.819 22.6059 112.468 22.6059C112.027 22.6059 111.672 22.5304 111.402 22.3794C111.14 22.2199 110.985 21.9639 110.936 21.6116ZM113.816 11.3281C114.118 11.3701 114.425 11.4078 114.735 11.4414C115.046 11.4666 115.324 11.4792 115.569 11.4792C116.541 11.4792 117.362 11.4414 118.032 11.3659C118.702 11.2903 119.245 11.1435 119.662 10.9253C120.078 10.6988 120.376 10.3883 120.557 9.99391C120.744 9.59951 120.838 9.0835 120.838 8.44576C120.838 7.91712 120.769 7.46814 120.63 7.09893C120.491 6.72973 120.27 6.43185 119.968 6.20529C119.674 5.97033 119.294 5.80251 118.829 5.70182C118.371 5.59273 117.823 5.53819 117.186 5.53819C116.949 5.53819 116.562 5.54238 116.022 5.55077C115.491 5.55077 114.756 5.57175 113.816 5.61371V5.63888C113.816 5.65566 113.816 5.67244 113.816 5.68922C113.825 5.69762 113.828 5.71021 113.828 5.72699C113.845 6.59131 113.849 7.46814 113.841 8.35766C113.841 9.24713 113.833 10.1827 113.816 11.1645V11.3281ZM113.816 19.9249C114.012 19.9585 114.212 19.992 114.417 20.0256C114.621 20.0592 114.854 20.0886 115.115 20.1137C115.385 20.1389 115.695 20.1599 116.046 20.1766C116.398 20.1934 116.814 20.2018 117.296 20.2018C117.852 20.2018 118.416 20.1683 118.988 20.1011C119.568 20.034 120.091 19.8872 120.557 19.6606C121.03 19.434 121.414 19.1067 121.709 18.6788C122.01 18.2425 122.162 17.6635 122.162 16.9419C122.162 16.3461 122.047 15.8468 121.818 15.444C121.598 15.0412 121.32 14.7181 120.985 14.4748C120.658 14.2231 120.303 14.0469 119.919 13.9462C119.535 13.8371 119.184 13.7825 118.865 13.7825C118.579 13.7825 118.285 13.7867 117.983 13.7951C117.688 13.8035 117.35 13.8161 116.966 13.8329C116.582 13.8413 116.132 13.8539 115.618 13.8706C115.111 13.8791 114.507 13.8874 113.804 13.8958C113.804 14.9028 113.804 15.7335 113.804 16.388C113.804 17.0425 113.804 17.5922 113.804 18.0369C113.812 18.4733 113.816 18.8341 113.816 19.1194C113.816 19.4047 113.816 19.6731 113.816 19.9249ZM127.97 15.0034C127.97 13.8623 128.159 12.8008 128.535 11.819C128.91 10.8372 129.425 9.98553 130.078 9.26388C130.74 8.54223 131.512 7.97583 132.395 7.56467C133.285 7.15352 134.245 6.94788 135.275 6.94788C135.797 6.94788 136.295 7.01084 136.77 7.1367C137.252 7.26256 137.697 7.43037 138.105 7.6402C138.522 7.84159 138.894 8.0723 139.221 8.33246C139.556 8.59256 139.841 8.8611 140.078 9.13802C140.07 9.02054 140.066 8.89468 140.066 8.76044C140.066 8.62614 140.066 8.50866 140.066 8.40799C140.066 8.19823 140.095 8.00522 140.152 7.82896C140.209 7.64439 140.299 7.48496 140.422 7.35065C140.544 7.21642 140.7 7.11157 140.887 7.03604C141.075 6.95213 141.304 6.91018 141.574 6.91018C141.802 6.91018 142.007 6.95632 142.186 7.0486C142.374 7.13251 142.534 7.24161 142.664 7.37585C142.795 7.50171 142.897 7.6402 142.97 7.7912C143.044 7.93388 143.081 8.06392 143.081 8.18141C143.081 8.4667 143.064 8.75619 143.032 9.04992C143.007 9.33522 142.987 9.62471 142.97 9.91838C142.97 10.8414 142.962 11.6595 142.946 12.3728C142.938 13.0777 142.926 13.728 142.909 14.3238C142.893 14.7266 142.881 15.1461 142.872 15.5825C142.864 16.0104 142.861 16.4048 142.861 16.7656C142.861 17.5795 142.861 18.2257 142.861 18.704C142.861 19.1823 142.881 19.5305 142.921 19.7487C142.995 19.7319 143.101 19.6942 143.24 19.6354C143.387 19.5767 143.522 19.5137 143.645 19.4466C143.759 19.4047 143.873 19.3627 143.987 19.3208C144.102 19.2788 144.245 19.2578 144.417 19.2578C144.613 19.2578 144.784 19.3039 144.931 19.3963C145.079 19.4802 145.201 19.5934 145.299 19.7361C145.405 19.8703 145.483 20.0256 145.532 20.2018C145.581 20.3697 145.606 20.5333 145.606 20.6927C145.606 20.9192 145.552 21.15 145.446 21.385C145.34 21.6116 145.144 21.7752 144.858 21.8759C144.613 21.9681 144.363 22.0647 144.11 22.1653C143.857 22.2661 143.6 22.3583 143.338 22.4423C143.085 22.5262 142.828 22.5975 142.566 22.6562C142.313 22.715 142.052 22.7444 141.782 22.7444C141.463 22.7444 141.202 22.6772 140.998 22.543C140.793 22.4087 140.634 22.2367 140.519 22.0269C140.405 21.8087 140.324 21.5696 140.274 21.3095C140.225 21.0494 140.197 20.7934 140.189 20.5417C139.935 20.8689 139.629 21.1752 139.27 21.4605C138.91 21.7458 138.514 21.9975 138.081 22.2157C137.648 22.4339 137.182 22.6059 136.684 22.7317C136.194 22.8577 135.687 22.9206 135.164 22.9206C134.102 22.9206 133.13 22.7234 132.248 22.329C131.365 21.9262 130.605 21.3724 129.968 20.6675C129.339 19.9542 128.849 19.1152 128.498 18.1502C128.146 17.1852 127.97 16.1363 127.97 15.0034ZM130.789 15.0034C130.789 15.6831 130.887 16.3377 131.083 16.967C131.288 17.5964 131.578 18.1544 131.954 18.6411C132.338 19.1194 132.807 19.5011 133.363 19.7864C133.918 20.0717 134.547 20.2144 135.25 20.2144C135.944 20.2144 136.573 20.0759 137.137 19.7991C137.701 19.5221 138.191 19.1613 138.608 18.7166C139.032 18.2719 139.38 17.7767 139.649 17.2313C139.919 16.6775 140.103 16.1237 140.201 15.5699V14.4622C140.111 13.9503 139.94 13.4091 139.686 12.8385C139.441 12.268 139.115 11.7435 138.706 11.2652C138.305 10.7785 137.823 10.3799 137.26 10.0694C136.696 9.75057 136.059 9.59113 135.348 9.59113C134.678 9.59113 134.066 9.73381 133.51 10.0191C132.954 10.296 132.472 10.682 132.064 11.1771C131.664 11.6638 131.349 12.2344 131.12 12.8889C130.899 13.5434 130.789 14.2483 130.789 15.0034ZM148.73 21.4353C148.73 21.1416 148.735 20.848 148.743 20.5542C148.751 20.2606 148.759 19.9375 148.767 19.585V9.88061C148.767 9.64565 148.743 9.41075 148.693 9.17579C148.644 8.93244 148.62 8.68072 148.62 8.42056C148.62 7.97583 148.775 7.63601 149.085 7.40105C149.396 7.16609 149.817 7.0486 150.348 7.0486C150.577 7.0486 150.777 7.09056 150.948 7.17446C151.12 7.24999 151.263 7.35065 151.378 7.47658C151.492 7.60244 151.578 7.74505 151.635 7.90449C151.692 8.06393 151.721 8.22755 151.721 8.39536C151.721 8.53804 151.708 8.68491 151.684 8.83591C151.667 8.97859 151.647 9.1212 151.622 9.26388C152.873 8.94501 153.934 8.65553 154.809 8.39536C155.691 8.13527 156.381 7.92131 156.88 7.75343C156.986 7.56049 157.133 7.39686 157.321 7.26256C157.517 7.11994 157.771 7.0486 158.081 7.0486C158.53 7.0486 158.886 7.17027 159.147 7.41362C159.416 7.64858 159.551 7.94644 159.551 8.30727C159.551 8.44995 159.543 8.59675 159.527 8.74781C159.511 8.89887 159.502 9.04993 159.502 9.20092C159.453 9.7128 159.441 10.2331 159.465 10.7617C159.499 11.2903 159.535 11.8232 159.576 12.3602C159.592 12.5281 159.6 12.7085 159.6 12.9014C159.608 13.0861 159.613 13.2749 159.613 13.4678C159.613 13.6692 159.564 13.8371 159.465 13.9714C159.367 14.1056 159.241 14.2147 159.086 14.2986C158.939 14.3741 158.775 14.4287 158.596 14.4622C158.416 14.4958 158.24 14.5126 158.069 14.5126C157.823 14.5126 157.619 14.4706 157.456 14.3867C157.293 14.2944 157.158 14.1811 157.052 14.0469C156.954 13.9042 156.88 13.749 156.831 13.5811C156.79 13.405 156.77 13.2329 156.77 13.0651C156.77 12.6791 156.774 12.2889 156.782 11.8945C156.79 11.4917 156.798 11.0512 156.806 10.5729C156.496 10.6484 156.067 10.7491 155.519 10.875C154.98 11.0009 154.388 11.1351 153.742 11.2778C153.375 11.3701 153.011 11.4581 152.652 11.5421C152.292 11.6176 151.929 11.6973 151.561 11.7812V20.0005L151.929 19.8872C152.092 19.8284 152.248 19.7781 152.395 19.7361C152.541 19.6858 152.709 19.6522 152.897 19.6354C153.052 19.6522 153.203 19.69 153.35 19.7487C153.506 19.8074 153.641 19.8913 153.755 20.0005C153.877 20.1095 153.975 20.248 154.049 20.4158C154.123 20.5752 154.159 20.7598 154.159 20.9696C154.159 21.1626 154.126 21.3472 154.061 21.5234C154.004 21.6997 153.922 21.8591 153.816 22.0017C153.71 22.136 153.583 22.2492 153.436 22.3416C153.298 22.4255 153.142 22.4716 152.971 22.48C152.856 22.4968 152.701 22.522 152.505 22.5555C152.309 22.5975 152.08 22.6436 151.819 22.694C151.402 22.7779 151.063 22.8367 150.802 22.8702C150.548 22.9038 150.336 22.9206 150.164 22.9206C149.976 22.9206 149.793 22.887 149.613 22.8199C149.441 22.7611 149.29 22.6688 149.16 22.543C149.028 22.4171 148.922 22.2619 148.841 22.0772C148.767 21.8927 148.73 21.6787 148.73 21.4353Z" fill="black"/>
</g>
<defs>
<clipPath id="clip0_6_262">
<rect width="160" height="29" fill="white"/>
</clipPath>
</defs>
</svg>
